# xmcd CD database file
#
# Track frame offsets:
#	150
#	20842
#	41355
#	62040
#	82565
#	89715
#
# Disc length: 1292 seconds
#
# Revision: 0
# Processed by: cddbd v1.5.1PL0 Copyright (c) Steve Scherf et al.
# Submitted via: CDex 1.50beta9
#
DISCID=41050a06
DTITLE=TAMAGO - 3D HEART
DYEAR=2005
DGENRE=Anime
TTITLE0=3D HEART
TTITLE1=LEMON
TTITLE2=3D HEART 〜off vocal version〜
TTITLE3=LEMON 〜off vocal version〜
TTITLE4=メガネファイブ参上！(radio size)
TTITLE5=マイペースでお買い物(radio size)
EXTD=YEAR: 2005
EXTT0=
EXTT1=
EXTT2=
EXTT3=
EXTT4=
EXTT5=
PLAYORDER=
